<svg width="77" height="60" viewBox="0 0 77 60" fill="none" xmlns="http://www.w3.org/2000/svg">
<path fill-rule="evenodd" clip-rule="evenodd" d="M16.4322 0C12.1345 0 8.95449 3.76151 9.09684 7.84087C9.23342 11.76 9.05598 16.8358 7.7781 20.9751C6.49641 25.1265 4.32872 27.7564 0.788086 28.0941V31.9059C4.32872 32.2436 6.49641 34.8735 7.7781 39.0251C9.05598 43.1642 9.23342 48.2401 9.09684 52.1593C8.95449 56.2381 12.1345 60 16.4328 60H60.4689C64.7668 60 67.9462 56.2387 67.8038 52.1593C67.6672 48.2401 67.8446 43.1642 69.1225 39.0251C70.4048 34.8735 72.5668 32.2436 76.1074 31.9059V28.0941C72.5668 27.7564 70.4048 25.1265 69.1225 20.9751C67.8446 16.8364 67.6672 11.76 67.8038 7.84087C67.9462 3.76214 64.7668 0 60.4689 0H16.4322ZM51.8521 36.9338C51.8521 42.551 47.6621 45.9577 40.7092 45.9577H28.8732C28.5347 45.9577 28.21 45.823 27.9706 45.5836C27.7312 45.3441 27.5966 45.0196 27.5966 44.681V15.3192C27.5966 14.9806 27.7312 14.6559 27.9706 14.4165C28.21 14.1771 28.5347 14.0426 28.8732 14.0426H40.6417C46.4391 14.0426 50.244 17.183 50.244 22.0047C50.244 25.3889 47.6847 28.4189 44.4234 28.9493V29.1263C48.8628 29.6134 51.8521 32.6873 51.8521 36.9338ZM39.4187 18.0894H32.6698V27.6218H38.3539C42.7479 27.6218 45.1709 25.8524 45.1709 22.6896C45.1709 19.726 43.0874 18.0894 39.4187 18.0894ZM32.6698 31.4044V41.9096H39.667C44.2417 41.9096 46.6651 40.0736 46.6651 36.6237C46.6651 33.1731 44.1739 31.4038 39.3726 31.4038L32.6698 31.4044Z" fill="white"/>
</svg>
