<svg width="54" height="60" viewBox="0 0 54 60" fill="none" xmlns="http://www.w3.org/2000/svg">
<path d="M53.7876 0L48.7868 54.1662L27.1205 60L5.45385 54.1662L0.454102 0H53.7876ZM43.7108 11.0139H27.101H10.197L11.0055 17.5549H27.101H28.0051L27.101 17.9313L11.5937 24.3899L12.108 30.7836L27.101 30.8323L35.1368 30.8577L34.6224 39.3829L27.1009 41.5006V41.4939L27.0393 41.511L19.7754 39.6773L19.3346 34.3853H19.3105H12.5729H12.5491L13.4311 44.6014L27.1011 48.644V48.6367L27.1258 48.644L40.7226 44.675L42.4863 24.3899H27.1011H27.0632L27.1011 24.3735L43.0499 17.5549L43.7108 11.0139Z" fill="white"/>
</svg>
