<svg width="43" height="60" viewBox="0 0 43 60" fill="none" xmlns="http://www.w3.org/2000/svg">
<path fill-rule="evenodd" clip-rule="evenodd" d="M18.0303 0H12.0303C5.40285 0 0.0302734 5.37258 0.0302734 12C0.0302734 15.5841 1.60155 18.8012 4.09281 21C1.60155 23.1988 0.0302734 26.4159 0.0302734 30C0.0302734 33.5841 1.60155 36.8013 4.09281 39C1.60155 41.1987 0.0302734 44.4159 0.0302734 48C0.0302734 54.6273 5.40285 60 12.0303 60C18.6576 60 24.0303 54.6273 24.0303 48V42V40.3947C25.7952 41.4156 27.8445 42 30.0303 42C36.6576 42 42.0303 36.6273 42.0303 30C42.0303 26.4159 40.4589 23.1989 37.9677 21C40.4589 18.8012 42.0303 15.5841 42.0303 12C42.0303 5.37258 36.6576 0 30.0303 0H24.0303H21.0303H18.0303ZM24.0303 6V18H30.0303C33.3441 18 36.0303 15.3137 36.0303 12C36.0303 8.68629 33.3441 6 30.0303 6H24.0303ZM18.0303 24H12.0303C8.71656 24 6.03027 26.6862 6.03027 30C6.03027 33.3138 8.71656 36 12.0303 36H18.0303V30V24ZM12.0303 18H18.0303V6H12.0303C8.71656 6 6.03027 8.68629 6.03027 12C6.03027 15.3137 8.71656 18 12.0303 18ZM24.0303 30C24.0303 33.3138 26.7165 36 30.0303 36C33.3441 36 36.0303 33.3138 36.0303 30C36.0303 26.6862 33.3441 24 30.0303 24C26.7165 24 24.0303 26.6862 24.0303 30ZM12.0303 42H18.0303V48C18.0303 51.3138 15.3441 54 12.0303 54C8.71656 54 6.03027 51.3138 6.03027 48C6.03027 44.6862 8.71656 42 12.0303 42Z" fill="white"/>
</svg>
