<svg width="61" height="60" viewBox="0 0 61 60" fill="none" xmlns="http://www.w3.org/2000/svg">
<path fill-rule="evenodd" clip-rule="evenodd" d="M46.7721 55.2964C41.5371 55.2964 38.1531 52.8006 36.5031 49.5366L41.0931 46.8779C42.3021 48.8519 43.8711 50.3013 46.6521 50.3013C48.9861 50.3013 50.4771 49.1335 50.4771 47.5225C50.4771 45.0985 47.2431 44.1513 44.9601 43.1733C40.8921 41.4423 38.192 39.2673 38.192 34.6743C38.192 30.4473 41.4141 27.2256 46.4511 27.2256C50.0331 27.2256 52.6131 28.4734 54.4641 31.7344L50.075 34.5542C49.109 32.8232 48.0621 32.1387 46.4511 32.1387C44.7981 32.1387 43.7511 33.1862 43.7511 34.5542C43.7511 36.2462 44.7981 36.9305 47.2161 37.9775C52.2831 40.1495 56.1171 41.8559 56.1171 47.4419C56.1171 52.5179 52.1301 55.2964 46.7721 55.2964ZM33.7881 46.7974C33.7881 52.6384 30.191 55.7256 25.196 55.7256C20.684 55.7256 17.9811 54 16.6521 51H16.6071H16.5861H16.5741L21.161 47.7935C22.046 49.3625 22.8441 50.4756 24.7761 50.4756C26.6301 50.4756 27.7881 49.5367 27.7881 46.7197V27H33.7881V46.7974ZM0.788086 60H60.7881V0H0.788086V60Z" fill="white"/>
</svg>
