<svg width="68" height="60" viewBox="0 0 68 60" fill="none" xmlns="http://www.w3.org/2000/svg">
<path d="M33.5845 24.0917C34.7336 24.0917 35.857 24.4322 36.8133 25.0701C37.7696 25.708 38.516 26.615 38.9585 27.6767C39.401 28.7384 39.5199 29.9075 39.3002 31.0368C39.0805 32.166 38.5321 33.2049 37.7239 34.0228C36.9156 34.8406 35.8838 35.4007 34.7583 35.6327C33.6328 35.8646 32.4639 35.758 31.3988 35.3263C30.3337 34.8946 29.42 34.157 28.7726 33.2064C28.1253 32.2559 27.7734 31.1348 27.7611 29.9844C27.757 29.2147 27.9043 28.4516 28.1948 27.7389C28.4852 27.0262 28.913 26.3777 29.4538 25.8305C29.9946 25.2833 30.6377 24.8481 31.3464 24.5498C32.0552 24.2514 32.8157 24.0958 33.5845 24.0917ZM19.166 54.9272C21.1279 56.1119 25.3943 54.3036 30.377 49.6268C28.7116 47.7321 27.1422 45.755 25.6746 43.7029C23.1628 43.4213 20.6679 43.005 18.2006 42.4558C16.6124 49.128 17.2041 53.7112 19.166 54.9272ZM21.3771 37.0307L20.474 35.4406C20.1219 36.3164 19.8204 37.2116 19.5709 38.122C20.4117 38.3091 21.3459 38.4649 22.3113 38.6208L21.3771 37.0307ZM41.7436 34.6612L44.2661 29.9844L41.7436 25.3076C40.8094 23.6552 39.8128 22.1898 38.9097 20.7244C37.2281 20.6309 35.453 20.6309 33.5845 20.6309C31.716 20.6309 29.941 20.6309 28.2593 20.6309C27.3562 22.0963 26.3597 23.5617 25.4255 25.2141L22.903 29.9844L25.4255 34.6612C26.3597 36.3136 27.3562 37.779 28.2593 39.2444C29.941 39.2444 31.716 39.2444 33.5845 39.2444C35.453 39.2444 37.2281 39.2444 38.9097 39.2444C39.8128 37.779 40.8094 36.3136 41.7436 34.6612ZM33.5845 13.7093C32.9928 14.3952 32.37 15.1123 31.7472 15.9541H35.4219C34.7991 15.1123 34.1762 14.3952 33.5845 13.7093ZM33.5845 46.2596C34.1762 45.5736 34.7991 44.8565 35.4219 44.0147H31.7472C32.37 44.8565 32.9928 45.5736 33.5845 46.2596ZM47.9719 5.04166C46.0411 3.85688 41.7436 5.66523 36.7921 10.342C38.4575 12.2367 40.0269 14.2138 41.4945 16.2659C44.004 16.5063 46.4989 16.881 48.9684 17.3883C50.5567 10.7161 49.965 6.1329 47.9719 4.91694M45.792 22.8134L46.6951 24.4035C47.0471 23.5277 47.3487 22.6325 47.5982 21.7221C46.7574 21.5351 45.8231 21.3792 44.8578 21.2233L45.792 22.8134ZM50.3075 0.988459C54.8853 3.60745 55.3836 10.4979 53.4217 18.5419C61.3316 20.8803 67.0305 24.7776 67.0305 30.0156C67.0305 35.2536 61.3316 39.1509 53.4217 41.4893C55.3524 49.5333 54.8542 56.4237 50.3075 59.0427C45.7609 61.6617 39.5637 58.6686 33.5845 52.9629C27.6054 58.6686 21.4082 61.6617 16.8304 59.0427C12.2526 56.4237 11.7855 49.6892 13.7163 41.4893C5.80632 39.1509 0.107422 35.2536 0.107422 30.0156C0.107422 24.7776 5.80632 20.8491 13.7163 18.5107C11.7855 10.4667 12.2837 3.57627 16.8304 0.957281C21.3771 -1.66171 27.6054 1.33142 33.5845 7.03708C39.5637 1.33142 45.7609 -1.66171 50.3075 0.957281M49.4044 29.9844C50.486 32.2796 51.4424 34.6318 52.2694 37.0307C58.8091 35.0665 62.4838 32.2604 62.4838 29.9844C62.4838 27.7084 58.7157 24.9023 52.2694 22.9381C51.4424 25.337 50.486 27.6892 49.4044 29.9844ZM17.7647 29.9844C16.6831 27.6892 15.7267 25.337 14.8996 22.9381C8.35992 24.9023 4.68522 27.7084 4.68522 29.9844C4.68522 32.2604 8.45334 35.0665 14.8996 37.0307C15.7267 34.6318 16.6831 32.2796 17.7647 29.9844ZM45.792 37.0307L44.8578 38.6208C45.8231 38.6208 46.7574 38.3091 47.5982 38.122C47.3487 37.2116 47.0471 36.3164 46.6951 35.4406L45.792 37.0307ZM36.6987 49.6268C41.6502 54.3036 46.0411 56.1119 47.8785 54.9272C49.7158 53.7424 50.4632 49.2527 48.875 42.4558C46.4055 42.9631 43.9106 43.3378 41.401 43.5782C39.9369 45.6728 38.3674 47.6916 36.6987 49.6268ZM21.3771 22.9381L22.3113 21.348C21.3459 21.348 20.4117 21.6598 19.5709 21.8468C19.8204 22.7572 20.1219 23.6524 20.474 24.5282L21.3771 22.9381ZM30.4704 10.342C25.4255 5.66523 21.1279 3.85688 19.166 5.04166C17.2041 6.22644 16.6124 10.7161 18.2006 17.513C20.6702 17.0057 23.1651 16.6311 25.6746 16.3906C27.1691 14.2938 28.7698 12.275 30.4704 10.342Z" fill="white"/>
</svg>
