<svg width="61" height="60" viewBox="0 0 61 60" fill="none" xmlns="http://www.w3.org/2000/svg">
<path fill-rule="evenodd" clip-rule="evenodd" d="M9.10742 0H51.1074C56.078 0 60.1074 4.02944 60.1074 9V51C60.1074 55.9706 56.078 60 51.1074 60H9.10742C4.13686 60 0.107422 55.9706 0.107422 51V9C0.107422 4.02944 4.13686 0 9.10742 0ZM12.5293 26.7188C11.8262 22.0313 19.0918 14.1797 30.3418 10.3125C38.6621 7.50001 48.1543 9.25782 47.9199 15.8203C47.0996 28.2422 28.1152 30.9375 25.7715 25.0781C25.3027 23.7891 26.1231 24.1406 26.3574 24.6094C30.8106 28.8281 43.4668 23.9063 44.8731 16.6406C45.8106 11.8359 38.4277 9.72657 27.9981 15C17.5684 20.2734 16.9824 24.4922 16.8652 26.1328C16.7072 29.1348 19.0524 30.9652 21.7823 33.0959C23.1019 34.1259 24.5113 35.226 25.7715 36.5625C32.4512 34.8047 37.8418 37.1484 37.8418 42.1875C37.8418 44.1797 36.084 45.3516 35.2637 45.5859C34.4434 45.8203 33.6231 45.5859 34.9121 45.1172C36.2012 44.6484 38.0762 41.7188 34.4434 39.1406C33.5059 38.4375 30.3418 37.2656 26.709 38.2031C28.3496 43.0078 25.7715 47.5781 23.1934 49.2188C20.6152 50.8594 14.5215 52.6172 14.2871 46.9922C14.1699 42.8906 19.3262 39.7266 23.4277 37.6172C22.7761 37.1103 21.9604 36.5488 21.0697 35.9357C17.6358 33.5718 13.0876 30.4408 12.5293 26.7188ZM17.5684 46.1719C17.4512 46.875 17.334 48.75 20.2637 47.8125C22.7246 47.1094 25.8887 43.7109 24.4824 39.2578C19.5606 41.7188 17.9199 44.1797 17.5684 46.1719Z" fill="white"/>
</svg>
