<svg width="61" height="60" viewBox="0 0 61 60" fill="none" xmlns="http://www.w3.org/2000/svg">
<path d="M0.107422 30V60H60.1074V0H0.107422V30ZM48.4562 27.6075C49.9805 27.9881 51.1412 28.6725 52.2156 29.775C52.7631 30.36 53.5824 31.4344 53.6518 31.6988C53.6705 31.7775 51.0643 33.525 49.4818 34.5019C49.4237 34.5412 49.1893 34.2975 48.9343 33.915C48.1637 32.7919 47.3518 32.3044 46.1124 32.2163C44.2955 32.0981 43.1237 33.0469 43.133 34.6388C43.1237 35.0288 43.2118 35.4206 43.3862 35.7619C43.7874 36.5925 44.5393 37.0894 46.8624 38.0963C51.1599 39.9413 52.9956 41.1619 54.1374 42.8906C55.4162 44.8238 55.6993 47.91 54.8406 50.2144C53.8843 52.7044 51.5199 54.4031 48.1993 54.96C47.1737 55.1456 44.7324 55.1156 43.6281 54.9112C41.2168 54.4819 38.9312 53.2894 37.5249 51.7275C36.968 51.1219 35.8937 49.53 35.963 49.4231C35.993 49.3838 36.2368 49.2281 36.5106 49.0706C36.7843 48.9131 37.7893 48.3281 38.738 47.7806L40.4668 46.7756L40.8287 47.3119C41.3368 48.0825 42.4393 49.1381 43.1049 49.4888C45.0193 50.505 47.6462 50.3588 48.9456 49.1963C49.4724 48.7575 49.7668 48.0825 49.7274 47.4C49.7274 46.7063 49.6393 46.395 49.2774 45.8756C48.8087 45.2119 47.8618 44.6456 45.1562 43.4738C42.0605 42.135 40.7218 41.3156 39.5124 39.9975C38.7512 39.1275 38.1849 38.1038 37.8624 36.9994C37.6374 36.15 37.5793 34.02 37.7555 33.1706C38.3912 30.1725 40.6562 28.0931 43.9074 27.4781C44.963 27.2738 47.423 27.3506 48.458 27.6056L48.4562 27.6075ZM34.3749 30.1181L34.3937 32.5688H26.5805V54.7669H21.053V32.5688H13.2512V30.1669C13.2512 28.8281 13.2812 27.7163 13.3187 27.6863C13.3487 27.6469 18.0943 27.6281 23.8562 27.6375L34.3449 27.6675L34.3749 30.1181Z" fill="white"/>
</svg>
